<svg xmlns="http://www.w3.org/2000/svg" viewBox="0 0 23 23"><defs><style>.cls-1{stroke:#000;}.cls-1,.cls-2{stroke-miterlimit:10;stroke-width:0.25px;}.cls-2,.cls-3,.cls-6{fill:none;stroke:#fff;}.cls-3,.cls-6{stroke-linecap:round;stroke-linejoin:round;}.cls-3{stroke-width:0.35px;}.cls-4{fill:#4FC0A8;}.cls-5{fill:#fff;}.cls-6{stroke-width:0.6px;}</style></defs><g id="Layer_1" data-name="Layer 1"><path class="cls-1" d="M16,37" transform="translate(-17.4 -46.9)"/></g><g id="Layer_3" data-name="Layer 3"><path class="cls-2" d="M19.73,52.29" transform="translate(-17.4 -46.9)"/><path class="cls-3" d="M20.23,60.14" transform="translate(-17.4 -46.9)"/><circle class="cls-4" cx="11.5" cy="11.5" r="10.75"/><path class="cls-5" d="M28.9,48.4a10,10,0,1,1-10,10,10,10,0,0,1,10-10m0-1.5A11.5,11.5,0,1,0,40.4,58.4,11.5,11.5,0,0,0,28.9,46.9Z" transform="translate(-17.4 -46.9)"/><path class="cls-6" d="M17.73,59.29l9.51-7.35a3.61,3.61,0,0,1,2.68-.75A2.85,2.85,0,0,1,32,52.94a3.21,3.21,0,0,1,0,2.77c-.26.43-3.68,5.1-3.74,5.64a.49.49,0,0,0,.23.5.56.56,0,0,0,.49,0c.4-.19,4.18-3.38,4.18-3.38A2.08,2.08,0,0,1,35.26,58a2.67,2.67,0,0,1,1.62,1.74c.28.74.53,1.5.78,2.25l.25.77a4.74,4.74,0,0,0,.59,1.17" transform="translate(-17.4 -46.9)"/><path class="cls-6" d="M18.23,61.75c.44-.34,6.08-4.76,7.46-5.82.62-.48,3.07-2.66,3.78-2.55a.78.78,0,0,1,.6.54c.24.73-.34,1.22-.72,1.75-.15.2-3.18,4.4-3.3,5.57a2.7,2.7,0,0,0,.86,2.18,2.38,2.38,0,0,0,2,.68,5,5,0,0,0,2.59-1.34c.47-.39.93-.81,1.4-1.21a5.86,5.86,0,0,1,1.32-1.06.54.54,0,0,1,.48,0,.65.65,0,0,1,.29.36c.35.84.57,1.74.86,2.6,0,0,.66,2.23,1.24,2.62" transform="translate(-17.4 -46.9)"/><path class="cls-6" d="M37.78,64.62c-.36.11-.9-1.54-.9-1.54-.09-.26-.63-1.9-.85-2.43-.32-.83-.41-1.42-1.54-1.45-.8,0-1.57.88-2.16,1.39l-1.58,1.35a4,4,0,0,1-2,1.07,1.26,1.26,0,0,1-1.08-.39,1.63,1.63,0,0,1-.52-1.27c.09-.86,2.66-4.42,2.66-4.42.14-.21,1-1.4,1.25-1.8a2.1,2.1,0,0,0,0-1.75,1.75,1.75,0,0,0-1.28-1.1,2.53,2.53,0,0,0-1.83.54L18.5,60.14" transform="translate(-17.4 -46.9)"/></g></svg>